<?xml version="1.0" encoding="UTF-8"?>
<svg version="1.1" xmlns="http://www.w3.org/2000/svg" width="64" height="64">
<path d="M0 0 C4.45141084 -0.09273773 8.77718446 -0.1028861 13.1875 0.5625 C16.87280356 0.98540369 19.39130544 0.66282145 23 0 C26.00207129 -0.08902353 28.99750986 -0.0600498 32 0 C32.495 2.475 32.495 2.475 33 5 C35.64 5.33 38.28 5.66 41 6 C41.12375 7.03125 41.2475 8.0625 41.375 9.125 C42.15960645 13.98955998 43.58191467 18.08342831 45.625 22.5625 C48.31849686 29.78659671 48.03336925 38.02145308 45.5 45.25 C41.5558125 53.77722227 35.63407025 59.48783583 27 63 C20.0159651 65.32801163 9.87168097 65.25850587 3 62.4375 C-5.40324188 57.85099775 -11.63320701 51.32795523 -14.609375 42.11328125 C-16.10539681 34.01980324 -15.4680436 26.5503579 -11.97265625 19.12109375 C-10.08835136 15.01194693 -9.89762739 11.50439498 -10 7 C-6.86501708 5.14223235 -4.62528568 4.79859524 -1 5 C-0.67 3.35 -0.34 1.7 0 0 Z " fill="#F7ECDA" transform="translate(16,0)"/>
<path d="M0 0 C1.17175781 0.01353516 1.17175781 0.01353516 2.3671875 0.02734375 C2.94726562 0.03894531 3.52734375 0.05054688 4.125 0.0625 C4.455 1.7125 4.785 3.3625 5.125 5.0625 C7.765 5.3925 10.405 5.7225 13.125 6.0625 C13.24875 7.09375 13.3725 8.125 13.5 9.1875 C14.28460645 14.05205998 15.70691467 18.14592831 17.75 22.625 C20.84282373 30.92011185 19.87405701 39.73448444 16.48828125 47.74609375 C12.00169393 55.36943552 12.00169393 55.36943552 7.81713867 56.91479492 C5.07332888 57.54892098 2.34762361 58.02192372 -0.4375 58.4375 C-1.38302734 58.60121094 -2.32855469 58.76492187 -3.30273438 58.93359375 C-7.24415464 59.59653228 -10.86484069 60.0625 -14.875 60.0625 C-16.36 50.6575 -16.36 50.6575 -17.875 41.0625 C-15.895 40.5675 -15.895 40.5675 -13.875 40.0625 C-14.37 42.5375 -14.37 42.5375 -14.875 45.0625 C-13.39382199 44.78122579 -11.91506751 44.48716268 -10.4375 44.1875 C-9.20193359 43.94386719 -9.20193359 43.94386719 -7.94140625 43.6953125 C-7.25949219 43.48648438 -6.57757813 43.27765625 -5.875 43.0625 C-5.545 42.4025 -5.215 41.7425 -4.875 41.0625 C-5.535 41.0625 -6.195 41.0625 -6.875 41.0625 C-6.875 40.4025 -6.875 39.7425 -6.875 39.0625 C-6.070625 38.77375 -5.26625 38.485 -4.4375 38.1875 C-1.7423532 37.32987432 -1.7423532 37.32987432 -0.875 35.0625 C-0.37404977 32.18943772 -0.37404977 32.18943772 -0.875 29.0625 C-3.94708243 25.17721927 -7.2404169 22.80046866 -11.875 21.0625 C-15.83027115 21.25084625 -17.82183459 22.67922742 -20.875 25.0625 C-21.37949402 22.47997107 -21.87874301 19.89661297 -22.375 17.3125 C-22.51808594 16.58289063 -22.66117188 15.85328125 -22.80859375 15.1015625 C-23.46388879 11.66906468 -23.875 8.57080509 -23.875 5.0625 C-21.83490245 4.41172704 -19.79284331 3.76710176 -17.75 3.125 C-16.04457031 2.58552734 -16.04457031 2.58552734 -14.3046875 2.03515625 C-9.49918298 0.67231955 -4.9933835 -0.07565733 0 0 Z " fill="#FAF7EE" transform="translate(43.875,-0.0625)"/>
<path d="M0 0 C5.12583611 -0.10251672 9.94997778 -0.03590199 15 1 C14.67 1.66 14.34 2.32 14 3 C11.71484375 3.6328125 11.71484375 3.6328125 8.9375 4.125 C8.01839844 4.29257813 7.09929688 4.46015625 6.15234375 4.6328125 C5.08693359 4.81457031 5.08693359 4.81457031 4 5 C4 5.66 4 6.32 4 7 C-1.445 7.495 -1.445 7.495 -7 8 C-6.855625 8.77601562 -6.71125 9.55203125 -6.5625 10.3515625 C-5.57670218 16.08835818 -4.91010685 21.48889563 -5.125 27.3125 C-5.34387341 38.0008181 -2.94051352 48.53103277 -1 59 C-7.92109214 55.67446497 -11.72162091 49.94610689 -14.3046875 42.8046875 C-16.37413375 34.45714587 -15.61371707 26.85997928 -11.97265625 19.12109375 C-10.08835136 15.01194693 -9.89762739 11.50439498 -10 7 C-6.86501708 5.14223235 -4.62528568 4.79859524 -1 5 C-0.67 3.35 -0.34 1.7 0 0 Z " fill="#FEDD3F" transform="translate(16,0)"/>
<path d="M0 0 C5.38617133 2.01981425 9.29121158 4.49931737 12.5 9.3125 C12.97654701 13.04545155 13.00050246 14.65666919 10.6875 17.6875 C8.5 19.3125 8.5 19.3125 5.5 19.3125 C5.5 19.9725 5.5 20.6325 5.5 21.3125 C6.16 21.3125 6.82 21.3125 7.5 21.3125 C7.17 22.3025 6.84 23.2925 6.5 24.3125 C3.53 24.6425 0.56 24.9725 -2.5 25.3125 C-2.5 23.9925 -2.5 22.6725 -2.5 21.3125 C-3.2425 21.415625 -3.985 21.51875 -4.75 21.625 C-7.5 21.3125 -7.5 21.3125 -9.875 19.3125 C-11.6137109 16.10257218 -11.98188997 14.05818528 -11.30078125 10.453125 C-9.26728598 5.01724496 -5.94248226 0.53057877 0 0 Z " fill="#32406D" transform="translate(31.5,19.6875)"/>
<path d="M0 0 C2.64 0.33 5.28 0.66 8 1 C8.12375 2.03125 8.2475 3.0625 8.375 4.125 C9.15960645 8.98955998 10.58191467 13.08342831 12.625 17.5625 C15.8157368 26.12021973 14.64055886 34.97353151 11.0703125 43.171875 C10 45 10 45 8 46 C7.18129307 41.78670155 6.36346286 37.57323407 5.54638672 33.35961914 C5.26927413 31.93118886 4.99193682 30.50280215 4.71435547 29.07446289 C3.80295914 24.38422652 2.89883838 19.69266026 2 15 C1.78827148 13.90252441 1.57654297 12.80504883 1.35839844 11.67431641 C1.17567383 10.7054248 0.99294922 9.7365332 0.8046875 8.73828125 C0.64726074 7.90981689 0.48983398 7.08135254 0.32763672 6.2277832 C0 4 0 4 0 0 Z " fill="#FEDA41" transform="translate(49,5)"/>
<path d="M0 0 C5.16638038 1.92472995 8.24772353 3.80627924 12 8 C12.33 8.33 12.66 8.66 13 9 C13.40226433 12.62037896 13.48470484 14.35949717 11.25 17.3125 C9.06388127 18.95208905 7.67438062 19.61794563 5 20 C5 19.34 5 18.68 5 18 C4.38125 17.9175 3.7625 17.835 3.125 17.75 C1 17 1 17 -0.15625 15.375 C-1.29797129 12.161266 -0.96292273 9.62922731 -0.625 6.25 C-0.51414062 5.07953125 -0.40328125 3.9090625 -0.2890625 2.703125 C-0.19367187 1.81109375 -0.09828125 0.9190625 0 0 Z " fill="#415484" transform="translate(31,20)"/>
<path d="M0 0 C5.12583611 -0.10251672 9.94997778 -0.03590199 15 1 C14.67 1.66 14.34 2.32 14 3 C11.71484375 3.6328125 11.71484375 3.6328125 8.9375 4.125 C8.01839844 4.29257813 7.09929688 4.46015625 6.15234375 4.6328125 C5.08693359 4.81457031 5.08693359 4.81457031 4 5 C4 5.66 4 6.32 4 7 C0.37 7.33 -3.26 7.66 -7 8 C-6.855625 8.86882813 -6.71125 9.73765625 -6.5625 10.6328125 C-6.376875 11.78523437 -6.19125 12.93765625 -6 14.125 C-5.814375 15.26195312 -5.62875 16.39890625 -5.4375 17.5703125 C-5.02684016 20.78959233 -4.77477004 23.76231931 -5 27 C-5.66 27.66 -6.32 28.32 -7 29 C-7.50688605 26.45953542 -8.00566874 23.91791124 -8.5 21.375 C-8.64308594 20.66214844 -8.78617188 19.94929688 -8.93359375 19.21484375 C-9.73049426 15.07855065 -10.16034056 11.23566321 -10 7 C-6.86501708 5.14223235 -4.62528568 4.79859524 -1 5 C-0.67 3.35 -0.34 1.7 0 0 Z " fill="#F1E3C8" transform="translate(16,0)"/>
<path d="M0 0 C2.64 0.33 5.28 0.66 8 1 C10.06799806 9.0839924 7.79818686 17.70893415 4 25 C3.32727653 21.58449704 2.66288201 18.16742548 2 14.75 C1.80921875 13.78191406 1.6184375 12.81382813 1.421875 11.81640625 C1.24140625 10.88183594 1.0609375 9.94726562 0.875 8.984375 C0.70742188 8.12553711 0.53984375 7.26669922 0.3671875 6.38183594 C0 4 0 4 0 0 Z " fill="#FE7285" transform="translate(49,5)"/>
<path d="M0 0 C1.15435547 -0.00386719 1.15435547 -0.00386719 2.33203125 -0.0078125 C4.1875 0.125 4.1875 0.125 5.1875 1.125 C5.58743686 3.81362664 5.93884543 6.48852217 6.25 9.1875 C6.34087891 9.94611328 6.43175781 10.70472656 6.52539062 11.48632812 C6.7499374 13.3654301 6.96920978 15.24516095 7.1875 17.125 C6.1975 16.795 5.2075 16.465 4.1875 16.125 C3.5275 11.505 2.8675 6.885 2.1875 2.125 C0.49625 2.57875 -1.195 3.0325 -2.9375 3.5 C-9.8323452 5.23605291 -16.76455377 6.23879374 -23.8125 7.125 C-23.8125 6.465 -23.8125 5.805 -23.8125 5.125 C-21.77240245 4.47422704 -19.73034331 3.82960176 -17.6875 3.1875 C-15.98207031 2.64802734 -15.98207031 2.64802734 -14.2421875 2.09765625 C-9.47814533 0.74657823 -4.95161171 -0.01687091 0 0 Z " fill="#F9EBD9" transform="translate(43.8125,-0.12499999999999999)"/>
<path d="M0 0 C0.66 0 1.32 0 2 0 C3.32 7.92 4.64 15.84 6 24 C2.34473692 22.17236846 0.41559768 21.1920398 -2 18 C-2.74150209 11.94439962 -1.2007133 5.92852191 0 0 Z " fill="#EC1258" transform="translate(9,35)"/>
<path d="M0 0 C0.66 0 1.32 0 2 0 C2.71770287 3.89506508 3.42959185 7.79114446 4.13623047 11.68823242 C4.49533313 13.66185099 4.8589652 15.63464368 5.22265625 17.60742188 C5.44824219 18.85458984 5.67382812 20.10175781 5.90625 21.38671875 C6.11572266 22.53358154 6.32519531 23.68044434 6.54101562 24.86206055 C6.94698846 27.63757591 7.09164953 30.20239814 7 33 C6.34 33 5.68 33 5 33 C-0.32725322 8.6722103 -0.32725322 8.6722103 0 0 Z " fill="#EFD6C5" transform="translate(10,27)"/>
<path d="M0 0 C0.33 0 0.66 0 1 0 C1.84223216 4.3733353 2.67221195 8.74890966 3.5 13.125 C3.73847656 14.3625 3.97695313 15.6 4.22265625 16.875 C4.44824219 18.07382812 4.67382812 19.27265625 4.90625 20.5078125 C5.11572266 21.60754395 5.32519531 22.70727539 5.54101562 23.84033203 C5.99180676 26.94359741 6.08249503 29.86931374 6 33 C5.01 33.495 5.01 33.495 4 34 C3.12735306 29.64932781 2.28020104 25.29406321 1.4375 20.9375 C1.19064453 19.70837891 0.94378906 18.47925781 0.68945312 17.21289062 C0.46064453 16.01728516 0.23183594 14.82167969 -0.00390625 13.58984375 C-0.32597046 11.94810181 -0.32597046 11.94810181 -0.65454102 10.27319336 C-1.03623427 6.65668349 -0.64932191 3.56633647 0 0 Z " fill="#F9E7D3" transform="translate(51,20)"/>
<path d="M0 0 C5.12583611 -0.10251672 9.94997778 -0.03590199 15 1 C14.67 1.66 14.34 2.32 14 3 C11.45975996 3.47574438 8.99948536 3.84007547 6.4375 4.125 C5.72658203 4.21136719 5.01566406 4.29773438 4.28320312 4.38671875 C2.52310688 4.59934783 0.76165836 4.80072697 -1 5 C-0.67 3.35 -0.34 1.7 0 0 Z " fill="#F9385B" transform="translate(16,0)"/>
<path d="M0 0 C2.475 0.495 2.475 0.495 5 1 C4.88570603 2.77155654 4.75816963 4.54226229 4.625 6.3125 C4.55539063 7.29863281 4.48578125 8.28476562 4.4140625 9.30078125 C4 12 4 12 2 15 C0.73694665 9.92523206 -0.27036084 5.27203646 0 0 Z " fill="#FE485B" transform="translate(50,8)"/>
<path d="M0 0 C0.66 0 1.32 0 2 0 C3.09367096 4.76579795 2.76635719 8.1558798 1.5625 12.875 C1.27503906 14.02742188 0.98757812 15.17984375 0.69140625 16.3671875 C0.46324219 17.23601563 0.23507812 18.10484375 0 19 C-0.66 18.67 -1.32 18.34 -2 18 C-2.27560214 11.79895188 -1.22899346 6.06815522 0 0 Z " fill="#FD4958" transform="translate(9,35)"/>
<path d="M0 0 C-1 2 -1 2 -3.6015625 3.1171875 C-7.33753608 4.08768179 -10.52169264 4.19770391 -14.375 4.125 C-15.62023437 4.10695313 -16.86546875 4.08890625 -18.1484375 4.0703125 C-19.55996094 4.03550781 -19.55996094 4.03550781 -21 4 C-21 3.67 -21 3.34 -21 3 C-13.90215087 1.18225815 -7.34918342 -0.43230491 0 0 Z " fill="#FE9669" transform="translate(47,60)"/>
<path d="M0 0 C0.66 0 1.32 0 2 0 C5 4.38461538 5 4.38461538 5 7 C3.02 7.33 1.04 7.66 -1 8 C-0.67 5.36 -0.34 2.72 0 0 Z " fill="#444C6F" transform="translate(14,10)"/>
<path d="M0 0 C0.66 0 1.32 0 2 0 C1.67 2.64 1.34 5.28 1 8 C0.34 8 -0.32 8 -1 8 C-3.29648649 5.4385343 -4 4.52032428 -4 1 C-2.68 1.33 -1.36 1.66 0 2 C0 1.34 0 0.68 0 0 Z " fill="#48557C" transform="translate(49,46)"/>
<path d="M0 0 C3.63 0.33 7.26 0.66 11 1 C10.67 1.66 10.34 2.32 10 3 C6.625 3.8125 6.625 3.8125 3 4 C1.0625 2.625 1.0625 2.625 0 1 C0 0.67 0 0.34 0 0 Z " fill="#FD4E64" transform="translate(20,0)"/>
<path d="M0 0 C0.33 0 0.66 0 1 0 C1.33 3.96 1.66 7.92 2 12 C1.01 12.495 1.01 12.495 0 13 C-0.19658808 11.58456585 -0.38187546 10.16755969 -0.5625 8.75 C-0.66691406 7.96109375 -0.77132812 7.1721875 -0.87890625 6.359375 C-1.00027349 3.99467126 -0.69633257 2.2488963 0 0 Z " fill="#FAECC5" transform="translate(55,41)"/>
<path d="M0 0 C0.66 0 1.32 0 2 0 C3.125 5.75 3.125 5.75 2 8 C1.34 8 0.68 8 0 8 C-0.33 8.66 -0.66 9.32 -1 10 C-0.67 6.7 -0.34 3.4 0 0 Z " fill="#FD585C" transform="translate(9,35)"/>
<path d="M0 0 C-0.66 0 -1.32 0 -2 0 C-2 0.66 -2 1.32 -2 2 C-4.31 2.33 -6.62 2.66 -9 3 C-8.67 2.01 -8.34 1.02 -8 0 C-5.04215769 -1.22393475 -3.00272755 -0.96516243 0 0 Z " fill="#F0D8C8" transform="translate(22,5)"/>
</svg>
